<svg id="Capa_1" enable-background="new 0 0 512 512" height="512" viewBox="0 0 512 512" width="512" xmlns="http://www.w3.org/2000/svg"><path d="m423.51 426.183h-24.882v-15.542h24.882c15.634 0 28.354-12.72 28.354-28.354 0-7.575-2.95-14.694-8.304-20.049l-8.938-8.937c-17.115-17.117-17.115-44.965 0-62.08l11.84-11.84 10.991 10.991-11.84 11.84c-11.056 11.055-11.056 29.043 0 40.099l8.937 8.936c8.29 8.29 12.857 19.313 12.857 31.04 0 24.204-19.692 43.896-43.897 43.896z" fill="#fa4954"/><path d="m148.011 232.948h-44.686v-51.041c0-12.34 10.003-22.343 22.343-22.343 12.34 0 22.343 10.003 22.343 22.343z" fill="#ed4322"/><path d="m301.126 232.948h-44.686v-51.041c0-12.34 10.003-22.343 22.343-22.343 12.34 0 22.343 10.003 22.343 22.343z" fill="#ed4322"/><path d="m148.011 232.948h-44.686v-51.041c0-12.34 10.003-22.343 22.343-22.343 12.34 0 22.343 10.003 22.343 22.343z" fill="#fa4954"/><path d="m301.126 232.948h-44.686v-51.041c0-12.34 10.003-22.343 22.343-22.343 12.34 0 22.343 10.003 22.343 22.343z" fill="#fa4954"/><path d="m125.668 159.563c-3.203 0-6.246.679-9 1.893 7.856 3.463 13.343 11.313 13.343 20.45v51.042h18v-51.042c0-12.339-10.003-22.343-22.343-22.343z" fill="#fa2a3b"/><path d="m278.783 159.563c-3.203 0-6.246.679-9 1.893 7.856 3.463 13.343 11.313 13.343 20.45v51.042h18v-51.042c0-12.339-10.004-22.343-22.343-22.343z" fill="#fa2a3b"/><path d="m334.028 275.244v-38.275c0-7.979-6.468-14.447-14.447-14.447h-234.712c-7.979 0-14.447 6.468-14.447 14.447v38.275c0 12.479-5.036 24.431-13.967 33.147l-49.753 48.554c-4.285 4.183-6.702 9.918-6.702 15.906v93.302c0 25.268 20.484 45.752 45.752 45.752h312.947c25.268 0 45.752-20.484 45.752-45.752v-93.302c0-5.989-2.417-11.724-6.702-15.906l-49.753-48.555c-8.932-8.716-13.968-20.667-13.968-33.146z" fill="#fc8086"/><path d="m397.748 356.945-49.753-48.555c-8.931-8.716-13.967-20.667-13.967-33.147v-38.275c0-7.979-6.468-14.447-14.447-14.447h-54.214c7.979 0 14.447 6.468 14.447 14.447v38.275c0 12.479 5.036 24.431 13.967 33.147l49.753 48.555c4.286 4.183 6.702 9.918 6.702 15.906v93.302c0 25.268-20.484 45.752-45.751 45.752h54.214c25.268 0 45.751-20.484 45.751-45.752v-93.302c0-5.988-2.416-11.723-6.702-15.906z" fill="#fb636f"/><circle cx="202.225" cy="385.92" fill="#e0dde2" r="87.166"/><path d="m247.6 311.483c8.074 13.218 12.729 28.752 12.729 45.375 0 48.141-39.026 87.166-87.166 87.166-16.622 0-32.157-4.655-45.375-12.729 15.31 25.062 42.919 41.792 74.437 41.792 48.141 0 87.166-39.026 87.166-87.166 0-31.519-16.729-59.128-41.791-74.438z" fill="#c8c1c9"/><circle cx="202.225" cy="385.92" fill="#fa4954" r="26.951"/><path d="m210.734 360.349c.89 2.676 1.379 5.534 1.379 8.509 0 14.885-12.066 26.951-26.951 26.951-2.975 0-5.833-.489-8.509-1.379 3.563 10.713 13.662 18.442 25.572 18.442 14.885 0 26.951-12.066 26.951-26.951 0-11.911-7.729-22.009-18.442-25.572z" fill="#fa2a3b"/><g fill="#8f818f"><circle cx="202.146" cy="329.796" r="9.848"/><circle cx="171.65" cy="338.688" r="9.848"/><circle cx="232.673" cy="338.688" r="9.848"/><circle cx="253.546" cy="362.686" r="9.848"/><circle cx="150.845" cy="362.686" r="9.848"/><circle cx="159.577" cy="423.247" r="9.848"/><circle cx="186.325" cy="440.237" r="9.848"/><circle cx="218.117" cy="440.237" r="9.848"/><circle cx="146.34" cy="394.33" r="9.848"/><circle cx="258.128" cy="394.33" r="9.848"/></g><path d="m505.796 209.369c-12.701-37.359-37.554-78.774-72.507-117.028s-73.964-66.732-110.028-82.743c-42.925-19.058-69.276-6.885-92.041 13.916-7.511 6.883-8.034 18.669-1.162 26.19l54.985 60.177c6.911 7.563 18.645 8.092 26.208 1.182l24.076-21.999c3.291-3.007 8.273-3.235 11.803-.51 15.499 11.966 30.688 25.956 44.889 41.497 14.2 15.541 26.767 31.927 37.29 48.441 2.396 3.76 1.721 8.701-1.57 11.709l-24.076 21.999c-7.563 6.911-8.092 18.645-1.182 26.208l54.985 60.177c6.872 7.521 18.657 8.061 26.188 1.2 22.765-20.803 37.26-45.951 22.142-90.416z" fill="#fb636f"/><path d="m505.796 209.369c-12.701-37.359-37.554-78.774-72.507-117.028s-73.964-66.732-110.028-82.743c-21.113-9.374-38.21-11.18-52.849-8.133 7.763 1.444 16.146 4.074 25.287 8.133 36.064 16.011 75.075 44.49 110.028 82.743 34.953 38.254 59.806 79.669 72.507 117.028 14.819 43.586 1.179 68.608-20.807 89.172l.039.043c6.872 7.521 18.657 8.061 26.188 1.2 22.765-20.802 37.26-45.95 22.142-90.415z" fill="#fa4954"/></svg>