<?xml version="1.0" encoding="utf-8"?>
<!-- Generator: Adobe Illustrator 24.3.0, SVG Export Plug-In . SVG Version: 6.00 Build 0)  -->
<svg version="1.1" id="svg2" xmlns="http://www.w3.org/2000/svg" xmlns:xlink="http://www.w3.org/1999/xlink" x="0px" y="0px"
	 viewBox="0 0 2247.1 395.4" style="enable-background:new 0 0 2247.1 395.4;" xml:space="preserve">
<style type="text/css">
	.st0{fill:#FFFFFF;}
	.st1{clip-path:url(#SVGID_2_);}
	.st2{fill:#7416A8;}
	.st3{fill:#2C5EFB;}
	.st4{fill:#2FAD4C;}
	.st5{fill:#FCE22B;}
	.st6{fill:#F87316;}
	.st7{fill:#F7022D;}
</style>
<g id="g10">
	<g id="g12">
		<path id="path14" class="st0" d="M190.8,279.1c-20,19.5-40.5,26.8-62.4,26.8c-39.5,0-68.3-33.6-68.3-72.2
			c0-38,28.8-71.7,68.3-71.7c21.9,0,42.4,7.3,62.4,28.8V279.1z M246.9,3.1h-93.1v51.7h37.1v80c-19-13.7-42.9-21.5-70.7-21.5
			c-64.4,0-116,53.6-116,120.4c0,67.3,51.7,120.9,116.1,120.9c27.8,0,51.7-7.8,70.7-21.9v16.6H284v-51.7h-37.1V3.1"/>
		<path id="path16" class="st0" d="M493.1,279.1c-20,19.5-40.5,26.8-62.4,26.8c-39.5,0-68.3-33.6-68.3-71.7
			c0-38.5,28.8-72.2,68.3-72.2c21.9,0,42.4,7.3,62.4,26.8L493.1,279.1z M548.7,118.6h-55.6v16.1c-19-13.7-42.9-21.5-70.7-21.5
			c-64.4,0-116,53.6-116,120.9c0,66.8,51.7,120.4,116,120.4c27.8,0,51.7-7.8,70.7-21.5v16.1h93.1v-51.7h-37L548.7,118.6"/>
		<path id="path18" class="st0" d="M756,304.4c-27.8,0-44.4-13.2-44.4-43.9v-90.2H793v-51.7h-81.4V47h-56.1v71.7H599v51.7h56.6v90.2
			c0,59.5,34.6,96,89.2,96c20,0,32.2-2,57.5-9.8l-7.8-48.3C782,302.3,769,304.2,756,304.4"/>
		<path id="path20" class="st0" d="M1003.2,279.1c-20,19.5-40.5,26.8-62.4,26.8c-39.5,0-68.3-33.6-68.3-71.7
			c0-38.5,28.8-72.2,68.3-72.2c21.9,0,42.4,7.3,62.4,26.8V279.1z M1059.2,118.6h-56.1v16.1c-19-13.7-42.9-21.5-70.7-21.5
			c-64.4,0-116,53.6-116,120.9c0,66.8,51.7,120.4,116,120.4c27.8,0,51.7-7.8,70.7-21.5v16.1h93.1v-51.7h-37.1L1059.2,118.6"/>
		<path id="path22" class="st0" d="M1225.5,118.6h-92.7v51.7h36.6v127.3h-36.6v51.7h150.2v-51.7h-57.5V188.9
			c21.9-7.8,53.2-15.1,94.6-16.6v-57.5c-40,0-71.7,12.2-94.6,28.8V118.6"/>
		<path id="path24" class="st0" d="M1951.6,304.4c-27.8,0-44.4-13.2-44.4-43.9v-90.2h81.4v-51.7h-81.4V47h-56.1v71.7h-56.6v51.7
			h56.6v90.2c0,59.5,34.6,96,89.2,96c20,0,32.2-2,57.5-9.8l-7.8-48.3C1977.6,302.3,1964.6,304.2,1951.6,304.4"/>
		<path id="path26" class="st0" d="M2174,212.7l-46.3-7.8c-26.8-4.9-35.1-14.6-35.1-26.8c0-12.7,10.2-23.9,36.1-23.9
			c28.8,0,42.9,13.6,61.9,34.6h50.7v-71.2h-50.7v15.1c-14.1-13.7-34.6-21.5-62.9-21.5c-53.6,0-94.1,24.4-94.1,70.7
			c0,42.9,35.1,63.9,84.8,72.6l41.9,6.8c21,3.9,29.8,13.7,29.8,26.3c0,12.2-8.3,24.9-38.1,24.9c-35.6,0-55.6-18.5-76.1-42.9
			l-0.5,0.5l-51.2-0.5v79.5h51.2v-21c18,15.1,45.3,28.3,82.9,28.3c56.1,0,88.7-28.8,88.7-72.2C2247.1,238.6,2210.6,219,2174,212.7"
			/>
		<path id="path28-2" class="st0" d="M1664.5,286.7l-71.7-22.2l-16.7-73.2l55-51l71.7,22.2l16.6,73.2L1664.5,286.7z M1483.4,327.9
			l-71.7-22.2l-16.6-73.2l55.1-51l71.7,22.2l8.3,36.6l8.3,36.6L1483.4,327.9z M1617,77.6l-78.7,72.9l-102.5-31.7l-102.3,94.8
			l30.9,136l133.2,41.2l78.7-72.9l102.5,31.7l102.3-94.8l-30.9-136L1617,77.6"/>
	</g>
</g>
<g>
	<defs>
		<path id="SVGID_1_" d="M1664.5,286.7l-71.7-22.2l-16.7-73.2l55-51l71.7,22.2l16.6,73.2L1664.5,286.7z M1483.4,327.9l-71.7-22.2
			l-16.6-73.2l55.1-51l71.7,22.2l8.3,36.6l8.3,36.6L1483.4,327.9z M1617,77.6l-78.7,72.9l-102.5-31.7l-102.3,94.8l30.9,136
			l133.2,41.2l78.7-72.9l102.5,31.7l102.3-94.8l-30.9-136L1617,77.6"/>
	</defs>
	<clipPath id="SVGID_2_">
		<use xlink:href="#SVGID_1_"  style="overflow:visible;"/>
	</clipPath>
	<g class="st1">
		
			<rect x="1356.3" y="322" transform="matrix(0.9751 -0.2215 0.2215 0.9751 -36.715 363.5491)" class="st2" width="491.7" height="47"/>
		
			<rect x="1345.9" y="276.2" transform="matrix(0.9751 -0.2215 0.2215 0.9751 -26.8314 360.1065)" class="st3" width="491.7" height="47"/>
		
			<rect x="1335.5" y="230.4" transform="matrix(0.9751 -0.2215 0.2215 0.9751 -16.9476 356.6661)" class="st4" width="491.7" height="46.9"/>
		
			<rect x="1325.1" y="184.6" transform="matrix(0.9751 -0.2215 0.2215 0.9751 -7.062 353.2228)" class="st5" width="491.7" height="46.9"/>
		
			<rect x="1314.7" y="138.8" transform="matrix(0.9751 -0.2215 0.2215 0.9751 2.8241 349.7821)" class="st6" width="491.7" height="46.9"/>
		
			<rect x="1304.3" y="93" transform="matrix(0.9751 -0.2215 0.2215 0.9751 12.7076 346.3395)" class="st7" width="491.7" height="47"/>
	</g>
</g>
</svg>
